<svg width="24" height="25" viewBox="0 0 24 25" fill="none" xmlns="http://www.w3.org/2000/svg">
<path d="M21.87 11.638C21.23 10.5147 17.71 4.87782 11.73 5.05998C6.20001 5.20166 3.00001 10.12 2.13001 11.638C2.04224 11.7918 1.99603 11.9663 1.99603 12.144C1.99603 12.3216 2.04224 12.4961 2.13001 12.65C2.76001 13.7531 6.13001 19.228 12.02 19.228H12.27C17.8 19.0863 21.01 14.168 21.87 12.65C21.9578 12.4961 22.004 12.3216 22.004 12.144C22.004 11.9663 21.9578 11.7918 21.87 11.638V11.638ZM12.22 17.204C7.91001 17.3052 5.10001 13.5709 4.22001 12.144C5.22001 10.5147 7.83001 7.18518 11.83 7.08398C16.12 6.97266 18.94 10.7171 19.83 12.144C18.8 13.7733 16.22 17.1028 12.22 17.204V17.204Z" fill="#818085"/>
<path d="M12 8.60199C11.3078 8.60199 10.6311 8.80972 10.0555 9.19892C9.47993 9.58812 9.03133 10.1413 8.76642 10.7885C8.50152 11.4357 8.4322 12.1479 8.56725 12.835C8.7023 13.5221 9.03564 14.1532 9.52513 14.6486C10.0146 15.1439 10.6383 15.4813 11.3172 15.6179C11.9961 15.7546 12.6999 15.6845 13.3394 15.4164C13.9789 15.1483 14.5256 14.6943 14.9101 14.1118C15.2947 13.5293 15.5 12.8445 15.5 12.144C15.5 11.2046 15.1313 10.3037 14.4749 9.63942C13.8185 8.97516 12.9283 8.60199 12 8.60199V8.60199ZM12 13.662C11.7033 13.662 11.4133 13.573 11.1666 13.4062C10.92 13.2394 10.7277 13.0023 10.6142 12.7249C10.5007 12.4475 10.4709 12.1423 10.5288 11.8478C10.5867 11.5534 10.7296 11.2829 10.9393 11.0706C11.1491 10.8583 11.4164 10.7137 11.7074 10.6552C11.9983 10.5966 12.2999 10.6266 12.574 10.7415C12.8481 10.8564 13.0824 11.051 13.2472 11.3006C13.412 11.5503 13.5 11.8438 13.5 12.144C13.5 12.5466 13.342 12.9327 13.0607 13.2174C12.7794 13.5021 12.3978 13.662 12 13.662Z" fill="#818085"/>
</svg>
